<mxfile host="app.diagrams.net" modified="2021-03-25T14:45:24.539Z" agent="5.0 (Macintosh; Intel Mac OS X 11_2_3) AppleWebKit/537.36 (KHTML, like Gecko) Chrome/89.0.4389.90 Safari/537.36" etag="xqi2bre_mesXMwVRPsfy" version="14.5.1" type="github">
  <diagram id="SD66XRnO4P2V5FME4sg-" name="Page-1">
    <mxGraphModel dx="946" dy="508" grid="1" gridSize="10" guides="1" tooltips="1" connect="1" arrows="1" fold="1" page="1" pageScale="1" pageWidth="850" pageHeight="1100" math="0" shadow="0">
      <root>
        <mxCell id="0" />
        <mxCell id="1" parent="0" />
        <mxCell id="Q3YmzB38YK5wPP6v0SH5-7" style="edgeStyle=orthogonalEdgeStyle;rounded=0;orthogonalLoop=1;jettySize=auto;html=1;entryX=1;entryY=0.5;entryDx=0;entryDy=0;" edge="1" parent="1" source="Q3YmzB38YK5wPP6v0SH5-1" target="Q3YmzB38YK5wPP6v0SH5-2">
          <mxGeometry relative="1" as="geometry" />
        </mxCell>
        <mxCell id="Q3YmzB38YK5wPP6v0SH5-1" value="&lt;font style=&quot;font-size: 19px&quot;&gt;task&lt;br&gt;&lt;br&gt;id&lt;br&gt;task Name&lt;br&gt;task Content&lt;br&gt;&lt;br&gt;&lt;span style=&quot;background-color: rgb(255 , 255 , 0)&quot;&gt;user id&lt;/span&gt;&lt;/font&gt;" style="rounded=0;whiteSpace=wrap;html=1;" vertex="1" parent="1">
          <mxGeometry x="480" y="30" width="330" height="370" as="geometry" />
        </mxCell>
        <mxCell id="Q3YmzB38YK5wPP6v0SH5-2" value="&lt;font style=&quot;font-size: 19px&quot;&gt;user&lt;br&gt;&lt;br&gt;&lt;span style=&quot;background-color: rgb(255 , 255 , 0)&quot;&gt;&amp;nbsp;id&lt;/span&gt;&lt;br&gt;username,&lt;br&gt;email&lt;br&gt;password&lt;br&gt;phone number&lt;br&gt;image&lt;br&gt;address&lt;br&gt;cover image&lt;/font&gt;" style="rounded=0;whiteSpace=wrap;html=1;" vertex="1" parent="1">
          <mxGeometry y="30" width="320" height="370" as="geometry" />
        </mxCell>
      </root>
    </mxGraphModel>
  </diagram>
</mxfile>
